<?xml version="1.0" encoding="UTF-8"?>
<svg xmlns="http://www.w3.org/2000/svg" xmlns:xlink="http://www.w3.org/1999/xlink" width="174px" height="30px" viewBox="0 0 172 30" version="1.1">
<g id="surface1">
<path style=" stroke:none;fill-rule:nonzero;fill:rgb(6.27451%,6.27451%,6.27451%);fill-opacity:1;" d="M 12.226562 7.019531 C 15.089844 7.019531 17.195312 7.601562 18.542969 8.765625 C 19.914062 9.933594 20.597656 11.457031 20.597656 13.339844 C 20.597656 13.976562 20.511719 14.6875 20.34375 15.46875 C 19.945312 17.207031 19.199219 18.730469 18.101562 20.042969 C 17.007812 21.335938 15.660156 22.339844 14.058594 23.0625 C 12.480469 23.761719 10.761719 24.109375 8.910156 24.109375 C 5.980469 24.109375 3.8125 23.527344 2.402344 22.363281 C 1.011719 21.175781 0.316406 19.609375 0.316406 17.660156 C 0.316406 17.003906 0.398438 16.273438 0.570312 15.46875 C 0.96875 13.816406 1.726562 12.355469 2.84375 11.085938 C 3.980469 9.792969 5.359375 8.796875 6.980469 8.101562 C 8.625 7.378906 10.371094 7.019531 12.226562 7.019531 Z M 12.132812 9.847656 C 11.6875 9.847656 11.214844 10.25 10.710938 11.054688 C 10.226562 11.835938 9.644531 13.332031 8.972656 15.53125 C 8.296875 17.734375 7.960938 19.28125 7.960938 20.171875 C 7.960938 20.636719 8.035156 20.953125 8.183594 21.125 C 8.328125 21.273438 8.53125 21.347656 8.78125 21.347656 C 9.226562 21.386719 9.675781 21.007812 10.140625 20.203125 C 10.625 19.398438 11.226562 17.832031 11.941406 15.5 C 12.59375 13.445312 12.921875 11.953125 12.921875 11.023438 C 12.921875 10.578125 12.847656 10.269531 12.699219 10.101562 C 12.574219 9.933594 12.382812 9.847656 12.132812 9.847656 Z M 12.132812 9.847656 "/>
<path style=" stroke:none;fill-rule:nonzero;fill:rgb(6.27451%,6.27451%,6.27451%);fill-opacity:1;" d="M 39.480469 19.441406 C 39.4375 19.523438 39.417969 19.652344 39.417969 19.820312 C 39.417969 19.96875 39.449219 20.085938 39.511719 20.171875 C 39.597656 20.253906 39.703125 20.296875 39.828125 20.296875 C 40.082031 20.296875 40.292969 20.191406 40.460938 19.980469 C 40.648438 19.746094 40.777344 19.628906 40.839844 19.628906 C 40.945312 19.628906 41.027344 19.703125 41.09375 19.851562 C 41.15625 19.980469 41.1875 20.140625 41.1875 20.328125 C 41.207031 20.945312 41.007812 21.546875 40.585938 22.140625 C 40.164062 22.710938 39.542969 23.1875 38.722656 23.570312 C 37.921875 23.929688 36.953125 24.109375 35.816406 24.109375 C 34.425781 24.109375 33.320312 23.792969 32.5 23.15625 C 31.679688 22.5 31.257812 21.632812 31.234375 20.550781 C 31.234375 19.769531 31.425781 18.890625 31.804688 17.914062 L 33.542969 13.339844 C 33.648438 13.066406 33.699219 12.84375 33.699219 12.675781 C 33.699219 12.398438 33.605469 12.1875 33.414062 12.039062 C 33.246094 11.871094 33.035156 11.785156 32.785156 11.785156 C 32.382812 11.785156 31.972656 11.976562 31.550781 12.355469 C 31.152344 12.714844 30.824219 13.308594 30.570312 14.136719 L 30.570312 14.070312 L 28.582031 20.519531 C 28.519531 20.773438 28.488281 20.996094 28.488281 21.1875 C 28.488281 21.460938 28.539062 21.683594 28.644531 21.855469 C 28.75 22.003906 28.898438 22.152344 29.085938 22.296875 C 29.234375 22.445312 29.339844 22.574219 29.402344 22.679688 C 29.464844 22.765625 29.476562 22.882812 29.433594 23.03125 C 29.328125 23.304688 29.117188 23.507812 28.804688 23.632812 C 28.488281 23.761719 28.003906 23.824219 27.351562 23.824219 L 20.148438 23.824219 C 19.597656 23.824219 19.199219 23.738281 18.945312 23.570312 C 18.695312 23.378906 18.609375 23.136719 18.695312 22.839844 C 18.777344 22.585938 19 22.363281 19.355469 22.171875 C 19.671875 22.003906 19.9375 21.800781 20.148438 21.566406 C 20.355469 21.335938 20.535156 20.964844 20.683594 20.457031 L 25.484375 4.605469 C 25.550781 4.414062 25.582031 4.257812 25.582031 4.128906 C 25.582031 3.894531 25.515625 3.707031 25.390625 3.558594 C 25.285156 3.410156 25.136719 3.261719 24.949219 3.113281 C 24.738281 2.945312 24.582031 2.796875 24.476562 2.667969 C 24.390625 2.542969 24.378906 2.371094 24.441406 2.160156 C 24.570312 1.671875 25.234375 1.25 26.433594 0.890625 C 27.632812 0.53125 28.886719 0.347656 30.191406 0.347656 C 31.414062 0.347656 32.308594 0.582031 32.878906 1.046875 C 33.46875 1.515625 33.761719 2.148438 33.761719 2.953125 C 33.761719 3.421875 33.6875 3.875 33.542969 4.320312 L 31.835938 9.910156 C 32.65625 8.832031 33.519531 8.078125 34.425781 7.65625 C 35.351562 7.230469 36.351562 7.019531 37.425781 7.019531 C 38.710938 7.019531 39.746094 7.410156 40.523438 8.195312 C 41.324219 8.980469 41.722656 9.996094 41.722656 11.246094 C 41.722656 11.902344 41.617188 12.546875 41.40625 13.183594 Z M 39.480469 19.441406 "/>
<path style=" stroke:none;fill-rule:nonzero;fill:rgb(6.27451%,6.27451%,6.27451%);fill-opacity:1;" d="M 72.589844 19.441406 C 72.546875 19.523438 72.523438 19.652344 72.523438 19.820312 C 72.523438 19.96875 72.554688 20.085938 72.621094 20.171875 C 72.703125 20.253906 72.808594 20.296875 72.933594 20.296875 C 73.1875 20.296875 73.398438 20.191406 73.566406 19.980469 C 73.757812 19.746094 73.882812 19.628906 73.945312 19.628906 C 74.050781 19.628906 74.136719 19.703125 74.199219 19.851562 C 74.261719 19.980469 74.292969 20.140625 74.292969 20.328125 C 74.316406 20.945312 74.113281 21.546875 73.695312 22.140625 C 73.273438 22.710938 72.652344 23.1875 71.828125 23.570312 C 71.03125 23.929688 70.0625 24.109375 68.921875 24.109375 C 67.535156 24.109375 66.425781 23.792969 65.605469 23.15625 C 64.785156 22.5 64.363281 21.632812 64.34375 20.550781 C 64.34375 19.769531 64.53125 18.890625 64.910156 17.914062 L 66.648438 13.339844 C 66.753906 13.066406 66.808594 12.84375 66.808594 12.675781 C 66.808594 12.398438 66.710938 12.1875 66.523438 12.039062 C 66.355469 11.871094 66.144531 11.785156 65.890625 11.785156 C 65.53125 11.785156 65.164062 11.945312 64.785156 12.261719 C 64.40625 12.578125 64.070312 13.078125 63.773438 13.753906 L 62.035156 19.441406 C 61.996094 19.523438 61.972656 19.652344 61.972656 19.820312 C 61.972656 19.96875 62.003906 20.085938 62.066406 20.171875 C 62.152344 20.253906 62.257812 20.296875 62.382812 20.296875 C 62.636719 20.296875 62.847656 20.191406 63.015625 19.980469 C 63.207031 19.746094 63.332031 19.628906 63.394531 19.628906 C 63.5 19.628906 63.585938 19.703125 63.648438 19.851562 C 63.710938 19.980469 63.742188 20.140625 63.742188 20.328125 C 63.761719 20.945312 63.5625 21.546875 63.140625 22.140625 C 62.722656 22.710938 62.097656 23.1875 61.277344 23.570312 C 60.476562 23.929688 59.507812 24.109375 58.371094 24.109375 C 56.980469 24.109375 55.875 23.792969 55.054688 23.15625 C 54.234375 22.5 53.8125 21.632812 53.789062 20.550781 C 53.789062 19.769531 53.980469 18.890625 54.359375 17.914062 L 56.097656 13.339844 C 56.203125 13.066406 56.253906 12.84375 56.253906 12.675781 C 56.253906 12.398438 56.160156 12.1875 55.96875 12.039062 C 55.800781 11.871094 55.589844 11.785156 55.339844 11.785156 C 54.980469 11.785156 54.613281 11.945312 54.234375 12.261719 C 53.855469 12.558594 53.539062 13.042969 53.285156 13.722656 L 51.199219 20.519531 C 51.117188 20.753906 51.074219 20.976562 51.074219 21.1875 C 51.074219 21.441406 51.125 21.652344 51.230469 21.824219 C 51.335938 21.96875 51.484375 22.128906 51.675781 22.296875 C 51.820312 22.425781 51.925781 22.542969 51.988281 22.648438 C 52.054688 22.753906 52.0625 22.882812 52.023438 23.03125 C 51.9375 23.304688 51.738281 23.507812 51.421875 23.632812 C 51.105469 23.761719 50.609375 23.824219 49.9375 23.824219 L 42.734375 23.824219 C 42.1875 23.824219 41.796875 23.738281 41.566406 23.570312 C 41.3125 23.378906 41.21875 23.136719 41.28125 22.839844 C 41.363281 22.585938 41.585938 22.363281 41.945312 22.171875 C 42.261719 22.003906 42.523438 21.800781 42.734375 21.566406 C 42.945312 21.335938 43.125 20.964844 43.269531 20.457031 L 46.082031 11.277344 C 46.125 11.171875 46.144531 11.023438 46.144531 10.832031 C 46.144531 10.597656 46.09375 10.417969 45.988281 10.292969 C 45.902344 10.164062 45.757812 10.007812 45.546875 9.816406 C 45.335938 9.644531 45.1875 9.496094 45.101562 9.371094 C 45.019531 9.242188 45.007812 9.074219 45.070312 8.863281 C 45.199219 8.375 45.859375 7.953125 47.0625 7.589844 C 48.261719 7.210938 49.515625 7.019531 50.820312 7.019531 C 51.851562 7.019531 52.664062 7.304688 53.253906 7.878906 C 53.863281 8.449219 54.160156 9.234375 54.136719 10.226562 C 55 9.019531 55.90625 8.183594 56.855469 7.71875 C 57.824219 7.253906 58.867188 7.019531 59.984375 7.019531 C 61.203125 7.019531 62.195312 7.378906 62.953125 8.101562 C 63.730469 8.796875 64.164062 9.71875 64.246094 10.863281 C 65.152344 9.421875 66.121094 8.429688 67.152344 7.878906 C 68.1875 7.304688 69.3125 7.019531 70.535156 7.019531 C 71.820312 7.019531 72.851562 7.410156 73.628906 8.195312 C 74.429688 8.980469 74.832031 9.996094 74.832031 11.246094 C 74.832031 11.902344 74.726562 12.546875 74.515625 13.183594 Z M 72.589844 19.441406 "/>
<path style=" stroke:none;fill-rule:nonzero;fill:rgb(6.27451%,6.27451%,6.27451%);fill-opacity:1;" d="M 92.082031 7.019531 C 93.011719 7.019531 93.746094 7.402344 94.292969 8.164062 C 94.863281 8.90625 95.148438 9.921875 95.148438 11.214844 C 95.148438 12.335938 94.949219 13.542969 94.546875 14.835938 C 93.769531 17.4375 92.515625 19.894531 90.789062 22.203125 C 89.082031 24.511719 87.113281 26.363281 84.878906 27.761719 C 82.667969 29.160156 80.457031 29.859375 78.246094 29.859375 C 77.152344 29.859375 76.203125 29.667969 75.402344 29.285156 C 74.621094 28.90625 74.035156 28.398438 73.632812 27.761719 C 73.210938 27.128906 73 26.449219 73 25.730469 C 73 25.410156 73.054688 25.0625 73.160156 24.679688 C 73.347656 24.089844 73.664062 23.632812 74.105469 23.316406 C 74.550781 22.996094 75.074219 22.839844 75.6875 22.839844 C 76.65625 22.839844 77.445312 23.167969 78.054688 23.824219 C 78.6875 24.5 79.089844 25.421875 79.257812 26.585938 C 80.605469 26.523438 81.847656 25.941406 82.984375 24.839844 C 81.910156 24.648438 81.109375 24.289062 80.582031 23.761719 C 80.078125 23.210938 79.730469 22.363281 79.539062 21.21875 L 78.277344 13.4375 C 78.214844 13.035156 78.121094 12.757812 77.992188 12.609375 C 77.886719 12.441406 77.738281 12.355469 77.550781 12.355469 C 77.402344 12.355469 77.222656 12.429688 77.011719 12.578125 C 76.824219 12.726562 76.6875 12.800781 76.601562 12.800781 C 76.433594 12.800781 76.351562 12.621094 76.351562 12.261719 C 76.351562 11.964844 76.402344 11.648438 76.507812 11.308594 C 76.886719 10.101562 77.59375 9.085938 78.625 8.257812 C 79.65625 7.410156 80.855469 6.988281 82.226562 6.988281 C 83.574219 6.988281 84.5625 7.390625 85.195312 8.195312 C 85.847656 9 86.269531 10.238281 86.460938 11.910156 L 87.40625 18.898438 C 87.46875 19.429688 87.660156 19.695312 87.976562 19.695312 C 88.355469 19.695312 88.796875 19.355469 89.304688 18.675781 C 89.808594 17.980469 90.304688 16.992188 90.789062 15.722656 C 90.15625 15.152344 89.671875 14.496094 89.335938 13.753906 C 88.996094 13.011719 88.828125 12.21875 88.828125 11.371094 C 88.828125 10.714844 88.914062 10.121094 89.082031 9.59375 C 89.335938 8.746094 89.722656 8.109375 90.25 7.6875 C 90.796875 7.242188 91.410156 7.019531 92.082031 7.019531 Z M 92.082031 7.019531 "/>
<path style=" stroke:none;fill-rule:nonzero;fill:rgb(6.27451%,6.27451%,6.27451%);fill-opacity:1;" d="M 107.820312 0.347656 C 110.074219 0.347656 111.757812 0.699219 112.875 1.398438 C 114.011719 2.074219 114.582031 2.910156 114.582031 3.90625 C 114.582031 4.710938 114.242188 5.335938 113.570312 5.78125 C 112.917969 6.203125 112.054688 6.417969 110.980469 6.417969 C 109.988281 6.417969 109.21875 6.171875 108.671875 5.6875 C 108.125 5.199219 107.851562 4.59375 107.851562 3.875 C 107.851562 3.429688 107.988281 2.964844 108.261719 2.476562 C 107.628906 2.476562 107.101562 2.636719 106.683594 2.953125 C 106.261719 3.25 105.933594 3.769531 105.703125 4.511719 C 105.578125 4.976562 105.511719 5.410156 105.511719 5.8125 C 105.511719 6.320312 105.597656 6.722656 105.765625 7.019531 C 105.957031 7.296875 106.21875 7.433594 106.554688 7.433594 L 108.417969 7.433594 C 109.515625 7.433594 110.0625 7.773438 110.0625 8.449219 C 110.0625 8.535156 110.042969 8.660156 110 8.832031 C 109.871094 9.296875 109.609375 9.644531 109.210938 9.878906 C 108.832031 10.113281 108.25 10.226562 107.472656 10.226562 L 106.523438 10.226562 L 103.398438 20.519531 C 103.332031 20.773438 103.300781 20.996094 103.300781 21.1875 C 103.300781 21.460938 103.355469 21.683594 103.460938 21.855469 C 103.566406 22.003906 103.710938 22.152344 103.902344 22.296875 C 104.050781 22.445312 104.15625 22.574219 104.21875 22.679688 C 104.28125 22.765625 104.292969 22.882812 104.25 23.03125 C 104.144531 23.304688 103.933594 23.507812 103.617188 23.632812 C 103.300781 23.761719 102.816406 23.824219 102.164062 23.824219 L 94.960938 23.824219 C 94.414062 23.824219 94.015625 23.738281 93.761719 23.570312 C 93.507812 23.378906 93.425781 23.136719 93.507812 22.839844 C 93.59375 22.585938 93.8125 22.363281 94.171875 22.171875 C 94.488281 22.003906 94.75 21.800781 94.960938 21.566406 C 95.171875 21.335938 95.351562 20.964844 95.5 20.457031 L 97.960938 12.324219 C 98.066406 12.007812 98.121094 11.679688 98.121094 11.339844 C 98.121094 10.917969 98.027344 10.589844 97.835938 10.355469 C 97.667969 10.101562 97.40625 9.824219 97.046875 9.53125 C 96.816406 9.339844 96.636719 9.179688 96.507812 9.054688 C 96.402344 8.90625 96.351562 8.734375 96.351562 8.542969 C 96.332031 8.140625 96.46875 7.855469 96.761719 7.6875 C 97.078125 7.519531 97.667969 7.433594 98.53125 7.433594 L 99.320312 7.433594 C 99.171875 6.902344 99.101562 6.375 99.101562 5.84375 C 99.101562 5.316406 99.195312 4.765625 99.382812 4.191406 C 99.785156 3.113281 100.636719 2.203125 101.941406 1.460938 C 103.269531 0.71875 105.230469 0.347656 107.820312 0.347656 Z M 107.820312 0.347656 "/>
<path style=" stroke:none;fill-rule:nonzero;fill:rgb(6.27451%,6.27451%,6.27451%);fill-opacity:1;" d="M 120.296875 7.019531 C 123.164062 7.019531 125.269531 7.601562 126.617188 8.765625 C 127.984375 9.933594 128.671875 11.457031 128.671875 13.339844 C 128.671875 13.976562 128.585938 14.6875 128.417969 15.46875 C 128.015625 17.207031 127.269531 18.730469 126.175781 20.042969 C 125.078125 21.335938 123.730469 22.339844 122.128906 23.0625 C 120.550781 23.761719 118.835938 24.109375 116.980469 24.109375 C 114.054688 24.109375 111.882812 23.527344 110.472656 22.363281 C 109.082031 21.175781 108.386719 19.609375 108.386719 17.660156 C 108.386719 17.003906 108.472656 16.273438 108.640625 15.46875 C 109.039062 13.816406 109.800781 12.355469 110.914062 11.085938 C 112.054688 9.792969 113.433594 8.796875 115.054688 8.101562 C 116.695312 7.378906 118.445312 7.019531 120.296875 7.019531 Z M 120.203125 9.847656 C 119.761719 9.847656 119.289062 10.25 118.78125 11.054688 C 118.296875 11.835938 117.71875 13.332031 117.042969 15.53125 C 116.371094 17.734375 116.035156 19.28125 116.035156 20.171875 C 116.035156 20.636719 116.105469 20.953125 116.253906 21.125 C 116.402344 21.273438 116.601562 21.347656 116.855469 21.347656 C 117.296875 21.386719 117.75 21.007812 118.214844 20.203125 C 118.699219 19.398438 119.296875 17.832031 120.015625 15.5 C 120.667969 13.445312 120.992188 11.953125 120.992188 11.023438 C 120.992188 10.578125 120.917969 10.269531 120.773438 10.101562 C 120.644531 9.933594 120.457031 9.847656 120.203125 9.847656 Z M 120.203125 9.847656 "/>
<path style=" stroke:none;fill-rule:nonzero;fill:rgb(6.27451%,6.27451%,6.27451%);fill-opacity:1;" d="M 141.03125 7.019531 C 143.894531 7.019531 146 7.601562 147.347656 8.765625 C 148.71875 9.933594 149.402344 11.457031 149.402344 13.339844 C 149.402344 13.976562 149.316406 14.6875 149.148438 15.46875 C 148.75 17.207031 148 18.730469 146.90625 20.042969 C 145.8125 21.335938 144.464844 22.339844 142.863281 23.0625 C 141.28125 23.761719 139.566406 24.109375 137.714844 24.109375 C 134.785156 24.109375 132.617188 23.527344 131.207031 22.363281 C 129.816406 21.175781 129.121094 19.609375 129.121094 17.660156 C 129.121094 17.003906 129.203125 16.273438 129.371094 15.46875 C 129.773438 13.816406 130.53125 12.355469 131.648438 11.085938 C 132.785156 9.792969 134.164062 8.796875 135.785156 8.101562 C 137.429688 7.378906 139.175781 7.019531 141.03125 7.019531 Z M 140.9375 9.847656 C 140.492188 9.847656 140.019531 10.25 139.515625 11.054688 C 139.03125 11.835938 138.449219 13.332031 137.777344 15.53125 C 137.101562 17.734375 136.765625 19.28125 136.765625 20.171875 C 136.765625 20.636719 136.839844 20.953125 136.988281 21.125 C 137.132812 21.273438 137.335938 21.347656 137.585938 21.347656 C 138.027344 21.386719 138.480469 21.007812 138.945312 20.203125 C 139.429688 19.398438 140.03125 17.832031 140.746094 15.5 C 141.398438 13.445312 141.726562 11.953125 141.726562 11.023438 C 141.726562 10.578125 141.652344 10.269531 141.503906 10.101562 C 141.378906 9.933594 141.1875 9.847656 140.9375 9.847656 Z M 140.9375 9.847656 "/>
<path style=" stroke:none;fill-rule:nonzero;fill:rgb(6.27451%,6.27451%,6.27451%);fill-opacity:1;" d="M 167.195312 19.25 C 167.152344 19.417969 167.132812 19.535156 167.132812 19.597656 C 167.132812 19.746094 167.175781 19.863281 167.257812 19.949219 C 167.34375 20.03125 167.449219 20.074219 167.574219 20.074219 C 167.828125 20.074219 168.039062 19.96875 168.207031 19.757812 C 168.398438 19.523438 168.523438 19.410156 168.585938 19.410156 C 168.691406 19.410156 168.777344 19.480469 168.839844 19.628906 C 168.902344 19.777344 168.933594 19.949219 168.933594 20.140625 C 168.953125 20.710938 168.734375 21.292969 168.269531 21.886719 C 167.828125 22.480469 167.226562 22.964844 166.46875 23.347656 C 165.710938 23.726562 164.890625 23.917969 164.003906 23.917969 C 162.953125 23.917969 162.035156 23.71875 161.257812 23.316406 C 160.476562 22.914062 159.941406 22.382812 159.644531 21.726562 C 159.078125 22.46875 158.425781 23.019531 157.6875 23.378906 C 156.949219 23.738281 156.171875 23.917969 155.347656 23.917969 C 154.378906 23.917969 153.476562 23.675781 152.632812 23.1875 C 151.8125 22.703125 151.148438 22.011719 150.640625 21.125 C 150.15625 20.214844 149.914062 19.1875 149.914062 18.042969 C 149.914062 16.117188 150.273438 14.304688 150.988281 12.609375 C 151.726562 10.894531 152.75 9.519531 154.054688 8.480469 C 155.359375 7.421875 156.84375 6.894531 158.507812 6.894531 C 159.414062 6.894531 160.183594 7 160.816406 7.210938 C 161.46875 7.421875 162.058594 7.738281 162.582031 8.164062 L 163.65625 4.605469 C 163.722656 4.414062 163.753906 4.257812 163.753906 4.128906 C 163.753906 3.894531 163.691406 3.707031 163.5625 3.558594 C 163.457031 3.410156 163.308594 3.261719 163.121094 3.113281 C 162.910156 2.945312 162.753906 2.796875 162.648438 2.667969 C 162.5625 2.542969 162.550781 2.371094 162.617188 2.160156 C 162.742188 1.671875 163.40625 1.25 164.605469 0.890625 C 165.804688 0.53125 167.058594 0.347656 168.363281 0.347656 C 169.585938 0.347656 170.480469 0.582031 171.050781 1.046875 C 171.640625 1.515625 171.933594 2.148438 171.933594 2.953125 C 171.933594 3.421875 171.863281 3.875 171.714844 4.320312 Z M 161.921875 10.324219 C 161.582031 10.027344 161.214844 9.878906 160.816406 9.878906 C 160.203125 9.878906 159.605469 10.335938 159.015625 11.246094 C 158.425781 12.15625 157.949219 13.257812 157.59375 14.546875 C 157.234375 15.839844 157.066406 17.003906 157.085938 18.042969 C 157.085938 19.207031 157.464844 19.789062 158.222656 19.789062 C 158.496094 19.789062 158.730469 19.683594 158.917969 19.472656 C 159.109375 19.238281 159.289062 18.867188 159.457031 18.359375 Z M 161.921875 10.324219 "/>
</g>
</svg>
